<?xml version="1.0" encoding="UTF-8"?>
<svg width="214px" height="57px" viewBox="0 0 214 57" version="1.1" xmlns="http://www.w3.org/2000/svg" xmlns:xlink="http://www.w3.org/1999/xlink">
    <!-- Generator: Sketch 63.1 (92452) - https://sketch.com -->
    <title>Group 5</title>
    <desc>Created with Sketch.</desc>
    <g id="LOGOS" stroke="none" stroke-width="1" fill="none" fill-rule="evenodd">
        <g id="Group-5" fill="#E21836">
            <polyline id="Fill-1" points="36.0790476 55.6466071 28.9251786 42.8925 54.77125 42.8925 41.7867857 15.3980952 22.7618452 55.6466071 1.81865105e-14 55.6466071 29.8005357 1.31815476 53.7755952 1.31815476 83.361131 55.6466071 36.0790476 55.6466071"></polyline>
            <g id="Group-7" transform="translate(76.785714, 0.000000)">
                <path d="M6.69059524,24.085119 L35.0603571,24.085119 C42.2142262,24.085119 45.0680952,23.6423214 45.0680952,18.5847024 C45.0680952,13.7420833 42.7568452,13.1943452 35.3854167,13.1943452 L6.57541667,13.1943452 L0.19452381,1.31815476 L40.2280357,1.31815476 C59.1505952,1.31815476 66.1841667,9.57005952 66.1841667,18.3645833 C66.1841667,26.8366071 59.6957738,36.1814286 38.9124405,36.1814286 L29.449881,36.1814286 L29.449881,55.6466071 L6.57541667,55.6466071 L6.57541667,24.085119 L6.69059524,24.085119" id="Fill-2"></path>
                <path d="M125.467857,51.5795238 C118.644167,54.7686905 110.174702,56.3095238 101.1575,56.3095238 C73.8832143,56.3095238 64.5332738,41.1315476 64.5332738,28.595 C64.5332738,12.7617857 78.3905357,0.550297619 102.260655,0.550297619 C110.945119,0.550297619 118.534107,1.86589286 124.91244,4.28720238 L124.91244,20.0154762 C118.319107,16.4986905 112.596012,14.9552976 105.88494,14.9552976 C94.4489881,14.9552976 85.0990476,20.1229762 85.0990476,28.3697619 C85.0990476,36.5116071 94.6691071,41.7919048 106.10506,41.7919048 C112.708631,41.7919048 118.093869,40.47375 125.467857,37.0619048 L125.467857,51.5795238" id="Fill-4"></path>
                <path d="M127.848214,5.00130952 C127.628095,5.00130952 127.507798,4.88613095 127.507798,4.68904762 L127.507798,4.65577381 C127.507798,4.45869048 127.628095,4.35375 127.848214,4.35375 L131.065536,4.35375 C131.285655,4.35375 131.395714,4.45869048 131.395714,4.65577381 L131.395714,4.68904762 C131.395714,4.88613095 131.285655,5.00130952 131.065536,5.00130952 L129.821607,5.00130952 L129.821607,8.60255952 C129.821607,8.82011905 129.711548,8.9327381 129.496548,8.9327381 L129.401845,8.9327381 C129.197083,8.9327381 129.092143,8.82011905 129.092143,8.60255952 L129.092143,5.00130952 L127.848214,5.00130952" id="Fill-5"></path>
                <path d="M132.025357,8.60255952 L132.025357,4.72488095 C132.025357,4.47916667 132.191726,4.32303571 132.44,4.32303571 L132.631964,4.32303571 C132.916071,4.32303571 132.990298,4.43053571 133.105476,4.68904762 L134.180476,7.11803571 L135.260595,4.68904762 C135.375774,4.42285714 135.460238,4.32303571 135.726429,4.32303571 L135.905595,4.32303571 C136.166667,4.32303571 136.335595,4.47916667 136.335595,4.72488095 L136.335595,8.60255952 C136.335595,8.82011905 136.240893,8.9327381 136.031012,8.9327381 L135.93119,8.9327381 C135.726429,8.9327381 135.644524,8.82011905 135.644524,8.60255952 L135.644524,5.25982143 L134.636071,7.52755952 C134.561845,7.70928571 134.47994,7.83470238 134.175357,7.83470238 C133.855417,7.83470238 133.796548,7.70928571 133.712083,7.52755952 L132.716429,5.28029762 L132.716429,8.60255952 C132.716429,8.82011905 132.631964,8.9327381 132.422083,8.9327381 L132.312024,8.9327381 C132.112381,8.9327381 132.025357,8.82011905 132.025357,8.60255952" id="Fill-6"></path>
            </g>
        </g>
    </g>
</svg>